<svg width="198.43" height="198.43" xmlns="http://www.w3.org/2000/svg">
 <g>
  <title>Layer 1</title>
  <path id="svg_1" d="m101.507004,99.214996c0,-36.972996 -20.226006,-69.218006 -50.215004,-86.285007c-29.989,17.06701 -50.215,49.312011 -50.215,86.285007s20.225999,69.219009 50.215,86.285004c29.988998,-17.065994 50.215004,-49.311996 50.215004,-86.285004z" fill="#ffffff"/>
  <g id="svg_2">
   <path id="svg_3" d="m99.353996,198.421005c-54.630997,0 -99.075996,-44.444992 -99.075996,-99.074997c0,-54.630997 44.445,-99.077008 99.075996,-99.077008c54.629997,0 99.075996,44.446 99.075996,99.077008c0,54.62999 -44.445999,99.074997 -99.075996,99.074997zm0,-183.152005c-46.359997,0 -84.075996,37.717 -84.075996,84.077001c0,46.359001 37.716,84.075005 84.075996,84.075005s84.075996,-37.716003 84.075996,-84.075005c0,-46.360001 -37.715988,-84.077001 -84.075996,-84.077001z" fill="#ffffff"/>
   <circle stroke="#000000" id="svg_4" r="49.554" cy="99.345" cx="99.354" fill="#ffffff"/>
  </g>
 </g>
</svg>